<?xml version="1.0" standalone="no"?>
<!DOCTYPE svg PUBLIC "-//W3C//DTD SVG 20010904//EN"
 "http://www.w3.org/TR/2001/REC-SVG-20010904/DTD/svg10.dtd">
<svg version="1.0" xmlns="http://www.w3.org/2000/svg"
 width="1024.000000pt" height="1024.000000pt" viewBox="0 0 1024.000000 1024.000000"
 preserveAspectRatio="xMidYMid meet">

<g transform="translate(0.000000,1024.000000) scale(0.100000,-0.100000)"
fill="#000000" stroke="none">
<path d="M4110 7704 c-70 -19 -141 -65 -186 -120 -20 -24 -89 -150 -154 -281
-125 -255 -152 -292 -227 -312 -25 -7 -273 -11 -714 -11 -647 0 -680 -1 -741
-20 -180 -55 -333 -227 -373 -417 -21 -100 -22 -3314 -1 -3414 43 -200 218
-385 406 -428 30 -7 999 -11 3006 -11 2681 0 2965 2 3015 16 139 41 265 144
331 270 73 139 68 5 68 1849 0 1444 -2 1668 -15 1724 -46 195 -212 366 -400
416 -37 9 -103 15 -177 15 l-118 0 0 68 c-1 128 -25 181 -100 220 -43 21 -52
22 -366 22 -177 0 -345 -4 -373 -10 -105 -20 -142 -73 -149 -212 l-4 -88 -70
0 c-76 0 -108 12 -149 57 -15 15 -82 137 -149 271 -139 277 -173 321 -287 375
l-68 32 -975 2 c-835 2 -983 0 -1030 -13z m1155 -1154 c214 -21 401 -72 577
-160 712 -353 1046 -1164 797 -1930 -79 -241 -198 -430 -393 -626 -143 -142
-242 -214 -404 -294 -427 -210 -921 -226 -1354 -44 -410 173 -740 522 -882
933 -68 194 -80 278 -80 531 -1 247 12 333 75 525 194 589 740 1012 1374 1064
146 12 169 12 290 1z"/>
<path d="M4995 6083 c-334 -41 -640 -231 -820 -507 -257 -393 -236 -921 50
-1296 59 -76 187 -197 265 -248 442 -291 1022 -244 1400 115 257 244 377 557
349 917 -34 448 -338 828 -774 970 -145 47 -332 66 -470 49z"/>
</g>
</svg>
